<?xml version="1.0" standalone="no"?>
<!DOCTYPE svg PUBLIC "-//W3C//DTD SVG 20010904//EN"
 "http://www.w3.org/TR/2001/REC-SVG-20010904/DTD/svg10.dtd">
<svg version="1.0" xmlns="http://www.w3.org/2000/svg"
 width="1600.000000pt" height="1600.000000pt" viewBox="0 0 1600.000000 1600.000000"
 preserveAspectRatio="xMidYMid meet">
<metadata>
Created by potrace 1.14, written by Peter Selinger 2001-2017
</metadata>
<g transform="translate(0.000000,1600.000000) scale(0.100000,-0.100000)"
fill="#000000" stroke="none">
<path d="M7427 15993 c-3 -5 -5 -392 -4 -861 0 -469 -3 -855 -6 -859 -3 -3
-34 -12 -69 -19 -82 -19 -70 -15 -173 -49 -49 -16 -92 -33 -93 -37 -2 -5 -7
-6 -11 -3 -5 2 -59 -21 -122 -52 -143 -70 -260 -144 -389 -248 -69 -56 -234
-231 -296 -315 -72 -96 -146 -214 -144 -226 1 -4 -3 -10 -8 -13 -9 -6 -25 -39
-80 -161 -11 -25 -29 -74 -41 -110 -13 -36 -25 -72 -28 -80 -7 -17 -9 -24 -18
-65 -9 -43 -13 -60 -15 -60 -1 0 -3 -9 -5 -20 -4 -25 -15 -91 -21 -119 -23
-113 -22 -443 1 -556 3 -14 7 -39 9 -57 3 -18 7 -40 10 -50 3 -10 7 -29 10
-43 24 -128 161 -473 197 -496 5 -3 7 -10 4 -15 -4 -5 -1 -9 4 -9 6 0 11 -4
11 -10 0 -29 230 -330 253 -330 5 0 8 -3 5 -6 -4 -3 22 -31 55 -62 34 -31 64
-58 67 -62 28 -31 222 -172 290 -209 69 -37 181 -92 235 -114 97 -39 99 -40
117 -43 10 -2 32 -11 50 -19 18 -8 25 -13 16 -11 -15 4 -30 -7 -34 -24 -1 -7
-16 -42 -48 -115 -15 -33 -31 -69 -36 -80 -4 -11 -17 -40 -28 -65 -11 -25 -27
-61 -35 -80 -8 -19 -25 -57 -37 -85 -25 -55 -43 -97 -45 -105 0 -3 -9 -20 -18
-37 -10 -18 -18 -35 -18 -38 0 -6 -25 -67 -59 -142 -16 -35 -26 -63 -22 -63 4
0 2 -4 -5 -8 -6 -4 -13 -16 -15 -27 -1 -11 -5 -22 -9 -25 -3 -3 -16 -30 -28
-60 -13 -30 -33 -75 -44 -100 -11 -25 -21 -47 -22 -50 -3 -9 -58 -136 -80
-185 -7 -16 -28 -64 -45 -105 -18 -41 -40 -93 -50 -115 -17 -39 -107 -246
-137 -315 -38 -89 -74 -171 -105 -240 -19 -41 -38 -87 -41 -102 -4 -15 -13
-33 -20 -40 -6 -7 -13 -20 -15 -28 -1 -8 -7 -24 -12 -35 -5 -11 -19 -42 -31
-70 -11 -27 -27 -63 -35 -80 -68 -154 -104 -240 -104 -251 0 -8 -5 -14 -10
-14 -6 0 -9 -3 -8 -7 1 -5 -8 -29 -20 -55 -12 -26 -22 -49 -22 -52 0 -3 -13
-35 -30 -71 -16 -36 -30 -70 -30 -75 0 -6 -4 -10 -8 -10 -5 0 -9 -6 -9 -12 0
-7 -9 -33 -20 -58 -12 -25 -42 -94 -68 -155 -26 -60 -52 -116 -57 -122 -6 -7
-8 -13 -5 -13 3 0 -10 -35 -29 -77 -20 -43 -42 -94 -50 -113 -8 -19 -19 -43
-24 -52 -6 -10 -10 -25 -10 -33 0 -8 -4 -15 -10 -15 -5 0 -10 -6 -10 -13 0 -7
-21 -60 -46 -117 -25 -58 -54 -123 -63 -145 -10 -22 -35 -79 -56 -127 l-38
-88 -216 0 c-119 -1 -485 -1 -813 -1 -459 0 -598 -3 -599 -12 -1 -16 -1 -319
0 -334 1 -8 182 -11 717 -11 394 0 718 -2 720 -5 2 -2 -25 -69 -62 -148 -36
-79 -72 -157 -79 -174 -7 -16 -23 -52 -35 -80 -12 -27 -39 -88 -60 -135 -21
-47 -56 -125 -79 -173 -22 -49 -41 -92 -41 -95 0 -3 -13 -33 -29 -66 -15 -34
-35 -77 -44 -96 -45 -102 -70 -159 -88 -198 -26 -59 -59 -131 -74 -167 -7 -16
-28 -61 -45 -100 -45 -98 -53 -119 -52 -127 1 -5 -2 -8 -8 -8 -5 0 -10 -9 -10
-20 0 -11 -5 -20 -10 -20 -6 0 -9 -3 -8 -7 1 -8 -6 -28 -37 -98 -10 -22 -19
-42 -19 -45 -1 -3 -9 -21 -18 -40 -31 -67 -78 -171 -78 -174 0 -2 -14 -34 -32
-72 -17 -38 -32 -71 -33 -74 -1 -3 -13 -31 -28 -64 -15 -32 -27 -60 -27 -62 0
-1 -14 -33 -31 -71 -96 -213 -151 -342 -147 -347 1 -2 -5 -12 -14 -23 -10 -10
-19 -28 -21 -39 -2 -10 -8 -28 -14 -39 -12 -23 -119 -268 -128 -295 -1 -3 -10
-23 -19 -45 -10 -22 -26 -59 -36 -82 -10 -23 -16 -43 -14 -46 3 -2 -2 -10 -11
-17 -8 -7 -15 -21 -15 -32 0 -11 -5 -28 -10 -39 -21 -38 -29 -141 -18 -223 22
-168 178 -349 393 -456 28 -14 51 -25 52 -26 2 0 -19 -66 -46 -147 -27 -80
-46 -148 -43 -151 3 -4 1 -6 -5 -6 -5 0 -10 -6 -10 -12 0 -14 -137 -434 -155
-478 -5 -14 -23 -68 -39 -120 -16 -52 -32 -102 -36 -110 -3 -8 -7 -19 -9 -25
-1 -5 -9 -29 -18 -52 -8 -24 -13 -43 -10 -43 2 0 -1 -10 -8 -23 -6 -12 -13
-31 -15 -41 -2 -11 -8 -25 -14 -33 -6 -7 -9 -13 -6 -13 3 0 -5 -29 -18 -65
-13 -36 -21 -65 -18 -65 3 0 -1 -7 -8 -17 -8 -9 -13 -18 -12 -19 1 -2 1 -9 -2
-16 -2 -7 -29 -92 -60 -188 -32 -96 -68 -206 -82 -245 -13 -38 -26 -77 -28
-85 -2 -8 -4 -16 -5 -17 -2 -2 -3 -6 -4 -10 -5 -18 -35 -109 -41 -125 -6 -16
-1 -18 43 -18 57 0 58 2 96 90 16 36 44 98 62 138 19 41 34 75 34 77 0 2 20
46 45 99 25 53 45 99 45 101 0 2 17 39 37 82 20 43 37 80 38 83 4 12 27 68 45
105 10 22 28 63 40 90 25 57 108 238 151 333 16 35 29 65 29 67 0 3 16 40 36
82 19 43 41 92 49 108 7 17 30 66 50 110 34 74 56 123 60 135 4 11 27 64 110
245 47 105 88 195 89 200 4 14 28 66 81 180 25 53 45 99 45 101 0 2 16 39 36
81 48 106 59 131 82 183 22 52 50 114 98 218 19 40 34 75 34 77 0 3 18 43 40
89 22 47 42 96 46 110 3 14 12 30 20 37 8 6 11 15 8 20 -3 5 0 9 5 9 6 0 10 3
9 8 -1 7 6 26 43 107 12 28 23 52 24 55 2 7 41 93 111 245 15 33 28 65 29 70
2 6 21 48 43 95 22 47 55 119 72 160 38 87 67 152 121 268 22 46 39 86 39 88
0 2 16 39 36 81 20 43 36 83 37 88 1 6 4 12 7 15 3 3 34 70 69 150 36 80 77
172 92 205 79 177 122 273 135 299 8 16 14 35 14 43 0 7 5 13 10 13 6 0 10 6
10 13 0 8 6 27 14 43 8 16 23 49 34 74 39 89 267 596 313 698 16 34 29 67 29
72 0 6 19 10 43 11 197 2 1071 -1 1074 -5 2 -2 4 -115 3 -250 l-1 -246 33 -33
c95 -96 385 -93 475 4 24 27 24 14 23 348 0 95 1 176 4 178 2 3 250 5 551 5
553 0 575 -2 575 -36 0 -6 7 -24 16 -41 8 -16 30 -64 48 -105 19 -41 44 -97
56 -125 12 -27 28 -63 35 -80 20 -44 75 -167 145 -318 22 -49 40 -90 40 -92 0
-2 14 -34 31 -72 17 -37 38 -84 46 -103 9 -19 26 -57 39 -84 13 -28 24 -56 24
-63 0 -7 5 -13 12 -13 6 0 9 -3 6 -6 -3 -3 9 -37 28 -75 19 -38 34 -72 34 -76
0 -4 18 -44 40 -89 22 -46 40 -85 40 -88 0 -3 14 -36 31 -73 85 -185 103 -226
101 -235 -1 -5 2 -8 8 -8 6 0 9 -3 8 -7 -1 -5 5 -24 14 -43 45 -95 98 -212 98
-216 0 -2 10 -26 21 -52 22 -48 64 -139 92 -202 8 -19 32 -71 52 -115 38 -84
57 -127 60 -135 0 -3 10 -25 22 -50 52 -111 185 -410 187 -420 1 -3 6 -12 11
-20 5 -8 10 -19 11 -25 1 -5 20 -49 43 -97 23 -48 41 -90 41 -92 0 -2 23 -52
50 -111 28 -59 50 -108 50 -111 0 -2 14 -34 31 -71 17 -38 51 -113 76 -168 25
-55 58 -128 74 -163 16 -35 29 -65 29 -67 0 -2 16 -39 36 -82 19 -43 44 -96
53 -118 10 -22 29 -62 41 -90 12 -27 39 -88 60 -135 21 -47 49 -110 63 -140
13 -30 34 -75 45 -100 38 -86 65 -145 98 -218 19 -41 34 -75 34 -78 0 -2 13
-31 29 -63 16 -33 26 -62 23 -65 -3 -4 0 -6 6 -6 7 0 11 -3 10 -7 -1 -5 6 -26
16 -48 10 -22 27 -58 37 -81 11 -22 19 -46 19 -52 0 -7 5 -12 10 -12 6 0 10
-7 10 -15 0 -8 4 -23 10 -33 8 -16 44 -94 83 -182 8 -19 26 -60 40 -90 14 -30
52 -117 86 -192 33 -76 74 -165 90 -198 16 -33 28 -60 26 -60 -4 0 32 -79 54
-120 5 -10 26 -16 59 -18 l51 -3 -15 48 c-8 26 -17 60 -21 76 -3 15 -9 27 -13
27 -3 0 -7 6 -7 13 0 13 -38 138 -53 172 -11 26 -71 212 -74 228 -1 7 -4 17
-7 22 -8 12 -38 104 -44 131 -2 10 -16 53 -30 94 -15 41 -29 82 -30 90 -2 8
-4 16 -5 18 -2 1 -3 5 -5 10 -1 4 -4 14 -8 22 -3 8 -11 33 -17 55 -6 22 -15
49 -20 60 -5 11 -41 119 -80 240 -39 121 -75 229 -79 240 -21 51 -91 275 -91
289 0 9 -5 16 -12 16 -6 0 -9 3 -5 6 3 3 -4 31 -15 62 -11 32 -21 62 -22 67
-10 42 -31 102 -39 112 -13 18 -5 26 60 58 32 16 67 37 77 47 11 10 25 18 31
18 18 0 169 149 203 201 62 93 87 218 69 349 -5 31 -32 112 -68 195 -7 17 -13
32 -14 35 -5 16 -287 663 -319 733 -13 29 -63 142 -111 252 -94 214 -121 274
-166 373 -16 35 -29 65 -29 67 0 4 -19 47 -78 175 -9 19 -17 37 -17 40 -1 3
-11 25 -22 50 -11 25 -39 86 -61 135 -49 111 -87 196 -114 255 -11 25 -32 70
-45 100 -13 30 -34 75 -45 100 -11 25 -47 106 -79 180 -33 74 -66 147 -75 163
-8 15 -12 27 -7 27 4 0 3 4 -3 8 -5 4 -21 32 -33 62 -25 58 -53 121 -92 205
-13 28 -23 52 -24 55 -1 3 -15 35 -32 72 -17 37 -34 75 -37 85 -5 17 28 18
716 18 l722 0 1 160 c0 88 -1 168 -3 177 -4 17 -52 18 -814 17 -446 0 -811 1
-813 3 -3 3 -158 356 -262 598 -25 58 -58 133 -74 168 -16 35 -29 65 -29 67 0
2 -11 28 -24 57 -13 29 -25 56 -26 60 0 4 -21 50 -45 103 -25 52 -45 97 -45
100 0 3 -14 35 -30 72 -17 37 -33 78 -36 90 -4 13 -10 26 -15 29 -5 3 -7 10
-4 15 4 5 2 9 -2 9 -5 0 -15 17 -22 38 -8 20 -27 66 -43 102 -17 36 -38 85
-48 110 -10 25 -29 68 -41 95 -13 28 -24 52 -24 55 -3 11 -27 66 -41 94 -8 16
-14 35 -14 43 0 7 -4 13 -8 13 -5 0 -15 19 -23 43 -7 23 -25 65 -38 92 -14 28
-26 55 -27 60 -2 9 -55 133 -99 230 -7 17 -30 68 -50 115 -20 47 -88 203 -151
347 -63 145 -114 265 -114 268 0 2 -16 37 -35 76 -19 40 -35 76 -35 80 0 5
-18 47 -40 94 -22 47 -40 87 -40 90 0 2 -13 34 -30 70 -16 36 -30 68 -30 70 0
2 -14 35 -31 72 -17 38 -39 88 -49 113 -10 25 -31 73 -48 108 -17 34 -28 62
-26 62 3 0 -2 12 -10 28 -23 40 -66 143 -66 156 0 6 40 24 88 39 48 15 119 43
157 62 39 19 76 35 83 35 6 0 12 5 12 10 0 6 4 10 9 10 8 0 44 20 133 73 37
22 117 80 139 102 9 8 18 15 22 15 20 0 251 234 314 319 61 81 83 112 83 118
0 3 6 14 14 22 44 50 175 324 201 421 2 8 15 54 28 101 14 47 27 105 31 128 3
23 8 45 10 49 17 28 26 434 12 537 -9 65 -33 189 -46 240 -6 22 -13 50 -16 63
-4 23 -38 119 -54 157 -57 136 -90 200 -157 310 -7 11 -16 27 -20 35 -4 8 -12
20 -17 27 -15 17 -25 29 -76 98 -144 195 -385 396 -615 514 -104 53 -275 122
-286 115 -5 -3 -9 -1 -9 5 0 5 -18 12 -40 16 -22 4 -42 11 -46 16 -3 5 -9 7
-13 5 -4 -3 -23 -1 -42 3 -19 5 -46 12 -61 15 l-26 6 -1 832 c0 458 0 848 -1
866 l0 32 -339 0 c-187 0 -342 -3 -344 -7z m495 -2367 c31 -3 63 -8 70 -11 7
-2 24 -7 38 -9 89 -17 181 -50 285 -103 87 -44 136 -74 163 -100 7 -7 18 -13
23 -13 12 0 239 -226 239 -238 0 -5 11 -22 25 -38 14 -16 25 -35 25 -41 0 -7
5 -13 10 -13 6 0 10 -5 10 -11 0 -6 8 -23 19 -37 10 -15 24 -44 32 -64 7 -21
17 -38 21 -38 4 0 7 -3 6 -7 -1 -5 8 -35 21 -67 19 -51 41 -133 57 -211 16
-79 21 -259 9 -343 -13 -97 -18 -124 -39 -197 -13 -44 -32 -98 -41 -120 -10
-22 -19 -42 -19 -45 -7 -35 -128 -231 -148 -238 -4 -2 -8 -8 -8 -13 0 -10 -35
-51 -91 -108 -187 -187 -454 -319 -699 -347 -79 -9 -267 -9 -335 0 -249 33
-500 160 -680 342 -103 104 -101 103 -158 187 -35 51 -109 188 -113 207 0 3
-6 19 -13 35 -24 59 -61 198 -63 241 -2 24 -6 44 -9 44 -3 0 -6 68 -5 150 0
83 3 150 6 150 4 0 6 10 5 22 -3 43 55 257 78 286 5 6 7 12 4 12 -9 0 73 152
109 203 19 26 34 50 34 53 0 12 194 214 206 214 3 0 17 11 31 24 24 23 198
130 212 132 3 0 27 10 52 22 26 12 66 28 90 36 45 15 221 52 274 58 46 5 203
1 267 -6z m-142 -4373 c12 -27 25 -57 30 -68 5 -11 16 -38 26 -60 9 -22 25
-60 36 -85 11 -25 23 -54 28 -65 4 -11 20 -47 35 -80 15 -33 30 -69 35 -80 4
-11 24 -57 44 -102 20 -45 36 -85 36 -87 0 -3 13 -33 29 -66 16 -33 27 -60 25
-60 -3 0 1 -12 10 -27 16 -31 40 -84 81 -183 15 -36 35 -83 45 -105 10 -22 37
-85 60 -140 23 -55 53 -125 67 -155 14 -30 26 -59 28 -65 1 -5 13 -35 27 -65
28 -61 40 -93 38 -98 -1 -2 5 -13 12 -25 8 -12 29 -58 47 -102 19 -44 41 -96
49 -115 9 -19 15 -38 14 -42 -1 -5 2 -8 8 -8 5 0 10 -5 10 -11 0 -18 52 -144
62 -147 4 -2 8 -9 8 -17 0 -12 25 -74 55 -140 8 -16 35 -79 61 -140 25 -60 57
-133 70 -162 13 -28 24 -54 24 -57 0 -5 30 -74 65 -151 8 -16 12 -31 11 -33
-5 -4 -927 -4 -932 0 -5 6 -6 369 -1 375 3 3 3 11 1 18 -3 6 -6 48 -7 93 -2
64 -6 84 -22 102 -20 22 -67 46 -114 56 -44 10 -276 5 -276 -6 0 -1 -8 -3 -17
-5 -29 -5 -79 -46 -89 -72 -5 -14 -9 -144 -9 -290 1 -146 -1 -267 -3 -269 -4
-5 -928 -7 -932 -2 -2 3 109 265 149 353 40 86 156 365 156 374 0 6 5 11 10
11 6 0 10 6 10 14 0 14 14 47 95 231 8 17 26 59 40 95 15 36 33 79 40 95 31
69 55 124 80 185 15 36 31 70 36 76 5 6 10 19 12 30 2 10 18 49 35 86 18 37
32 71 32 76 0 4 8 26 19 48 17 35 33 72 76 169 7 17 25 59 40 95 15 36 40 93
56 128 16 35 29 69 29 77 0 8 5 15 10 15 6 0 10 6 10 13 0 11 73 187 125 302
15 33 47 107 50 115 1 3 8 19 15 35 7 17 14 35 16 40 5 21 54 125 59 125 2 0
14 -21 25 -47z"/>
</g>
</svg>
